{"asset":{"version":"2.0","generator":"babylon.js glTF exporter for maya 2018 v1.3.1"},"scene":0,"scenes":[{"nodes":[0],"extensions":{}}],"nodes":[{"children":[1,2,3,4,5,6],"translation":[-99.63993,-3.39185572,73.21267],"rotation":[0.0,0.0,0.0,1.0],"scale":[0.124271631,0.08388335,0.124271631],"name":"environment"},{"mesh":0,"translation":[0.0,0.0,0.0],"rotation":[0.0,0.0,0.0,1.0],"scale":[1.0,1.0,1.0],"name":"aodi_carg:Obj3d66FBXASC045826820FBXASC04534FBXASC045246"},{"mesh":1,"translation":[0.0,0.0,0.0],"rotation":[0.0,0.0,0.0,1.0],"scale":[1.0,1.0,1.0],"name":"aodi_carg:Object003"},{"mesh":2,"translation":[801.791443,40.4353828,-589.134155],"rotation":[0.0,0.0,0.0,1.0],"scale":[8.046888,11.9213161,8.046888],"name":"aodi_carg:pPlane1"},{"mesh":3,"translation":[0.0,0.0,0.0],"rotation":[0.0,0.0,0.0,1.0],"scale":[1.0,1.0,1.0],"name":"aodi_carg:Object"},{"mesh":4,"translation":[0.0,0.0,0.0],"rotation":[0.0,0.0,0.0,1.0],"scale":[1.0,1.0,1.0],"name":"aodi_carg:polySurface8"},{"mesh":5,"translation":[-1.99982107,0.0,0.0],"rotation":[0.0,0.0,0.0,1.0],"scale":[1.0,1.0,1.0],"name":"aodi_carg:polySurface18"}],"meshes":[{"primitives":[{"attributes":{"POSITION":1,"NORMAL":2,"TANGENT":3,"TEXCOORD_0":4},"indices":0,"mode":4,"material":0}],"name":"aodi_carg:Obj3d66FBXASC045826820FBXASC04534FBXASC045246"},{"primitives":[{"attributes":{"POSITION":6,"NORMAL":7,"TANGENT":8,"TEXCOORD_0":9},"indices":5,"mode":4,"material":1}],"name":"aodi_carg:Object003"},{"primitives":[{"attributes":{"POSITION":11,"NORMAL":12,"TANGENT":13,"TEXCOORD_0":14},"indices":10,"mode":4,"material":2}],"name":"aodi_carg:pPlane1"},{"primitives":[{"attributes":{"POSITION":16,"NORMAL":17,"TANGENT":18,"TEXCOORD_0":19},"indices":15,"mode":4,"material":3},{"attributes":{"POSITION":21,"NORMAL":22,"TANGENT":23,"TEXCOORD_0":24},"indices":20,"mode":4,"material":4}],"name":"aodi_carg:Object"},{"primitives":[{"attributes":{"POSITION":26,"NORMAL":27,"TEXCOORD_0":28},"indices":25,"mode":4,"material":5}],"name":"aodi_carg:polySurface8"},{"primitives":[{"attributes":{"POSITION":30,"NORMAL":31,"TANGENT":32,"TEXCOORD_0":33,"TEXCOORD_1":34},"indices":29,"mode":4,"material":6}],"name":"aodi_carg:polySurface18"}],"accessors":[{"bufferView":0,"componentType":5123,"count":10725,"type":"SCALAR","name":"accessorIndices"},{"bufferView":1,"componentType":5126,"count":6250,"max":[1171.3147,400.000122,-206.167969],"min":[432.267822,-0.150146484,-972.1003],"type":"VEC3","name":"accessorPositions"},{"bufferView":1,"byteOffset":75000,"componentType":5126,"count":6250,"type":"VEC3","name":"accessorNormals"},{"bufferView":2,"componentType":5126,"count":6250,"type":"VEC4","name":"accessorTangents"},{"bufferView":3,"componentType":5126,"count":6250,"type":"VEC2","name":"accessorUVs"},{"bufferView":0,"byteOffset":21452,"componentType":5123,"count":24,"type":"SCALAR","name":"accessorIndices"},{"bufferView":1,"byteOffset":150000,"componentType":5126,"count":16,"max":[1169.95166,405.932129,-206.731689],"min":[432.268066,0.00561523438,-972.100342],"type":"VEC3","name":"accessorPositions"},{"bufferView":1,"byteOffset":150192,"componentType":5126,"count":16,"type":"VEC3","name":"accessorNormals"},{"bufferView":2,"byteOffset":100000,"componentType":5126,"count":16,"type":"VEC4","name":"accessorTangents"},{"bufferView":3,"byteOffset":50000,"componentType":5126,"count":16,"type":"VEC2","name":"accessorUVs"},{"bufferView":0,"byteOffset":21500,"componentType":5123,"count":600,"type":"SCALAR","name":"accessorIndices"},{"bufferView":1,"byteOffset":150384,"componentType":5126,"count":121,"max":[38.701416,-2.99139023,38.701416],"min":[-38.701416,-2.99139023,-38.701416],"type":"VEC3","name":"accessorPositions"},{"bufferView":1,"byteOffset":151836,"componentType":5126,"count":121,"type":"VEC3","name":"accessorNormals"},{"bufferView":2,"byteOffset":100256,"componentType":5126,"count":121,"type":"VEC4","name":"accessorTangents"},{"bufferView":3,"byteOffset":50128,"componentType":5126,"count":121,"type":"VEC2","name":"accessorUVs"},{"bufferView":0,"byteOffset":22700,"componentType":5123,"count":9600,"type":"SCALAR","name":"accessorIndices"},{"bufferView":1,"byteOffset":153288,"componentType":5126,"count":5941,"max":[904.811646,16.7524414,-517.987061],"min":[691.0851,-0.328857422,-672.7954],"type":"VEC3","name":"accessorPositions"},{"bufferView":1,"byteOffset":224580,"componentType":5126,"count":5941,"type":"VEC3","name":"accessorNormals"},{"bufferView":2,"byteOffset":102192,"componentType":5126,"count":5941,"type":"VEC4","name":"accessorTangents"},{"bufferView":3,"byteOffset":51096,"componentType":5126,"count":5941,"type":"VEC2","name":"accessorUVs"},{"bufferView":0,"byteOffset":41900,"componentType":5123,"count":6579,"type":"SCALAR","name":"accessorIndices"},{"bufferView":1,"byteOffset":295872,"componentType":5126,"count":11797,"max":[904.811646,17.78955,-517.987061],"min":[691.0851,-0.759643555,-672.7954],"type":"VEC3","name":"accessorPositions"},{"bufferView":1,"byteOffset":437436,"componentType":5126,"count":11797,"type":"VEC3","name":"accessorNormals"},{"bufferView":2,"byteOffset":197248,"componentType":5126,"count":11797,"type":"VEC4","name":"accessorTangents"},{"bufferView":3,"byteOffset":98624,"componentType":5126,"count":11797,"type":"VEC2","name":"accessorUVs"},{"bufferView":0,"byteOffset":55060,"componentType":5123,"count":11847,"type":"SCALAR","name":"accessorIndices"},{"bufferView":1,"byteOffset":579000,"componentType":5126,"count":8627,"max":[1155.34924,400.000031,-227.72287],"min":[450.228882,-0.15020752,-966.523254],"type":"VEC3","name":"accessorPositions"},{"bufferView":1,"byteOffset":682524,"componentType":5126,"count":8627,"type":"VEC3","name":"accessorNormals"},{"bufferView":3,"byteOffset":193000,"componentType":5126,"count":8627,"type":"VEC2","name":"accessorUVs"},{"bufferView":0,"byteOffset":78756,"componentType":5123,"count":6,"type":"SCALAR","name":"accessorIndices"},{"bufferView":1,"byteOffset":786048,"componentType":5126,"count":4,"max":[1150.70239,400.952484,-451.386658],"min":[1150.70239,-0.396759033,-733.2652],"type":"VEC3","name":"accessorPositions"},{"bufferView":1,"byteOffset":786096,"componentType":5126,"count":4,"type":"VEC3","name":"accessorNormals"},{"bufferView":2,"byteOffset":386000,"componentType":5126,"count":4,"type":"VEC4","name":"accessorTangents"},{"bufferView":3,"byteOffset":262016,"componentType":5126,"count":4,"type":"VEC2","name":"accessorUVs"},{"bufferView":3,"byteOffset":262048,"componentType":5126,"count":4,"type":"VEC2","name":"accessorUV2s"},{"bufferView":4,"componentType":5126,"count":2,"max":[0.625],"min":[0.0],"type":"SCALAR","name":"accessorAnimationInput"},{"bufferView":5,"componentType":5126,"count":2,"type":"VEC3","name":"accessorAnimationScales"},{"bufferView":4,"byteOffset":8,"componentType":5126,"count":2,"max":[0.625],"min":[0.0],"type":"SCALAR","name":"accessorAnimationInput"},{"bufferView":5,"byteOffset":24,"componentType":5126,"count":2,"type":"VEC3","name":"accessorAnimationPositions"},{"bufferView":4,"byteOffset":16,"componentType":5126,"count":2,"max":[0.625],"min":[0.0],"type":"SCALAR","name":"accessorAnimationInput"},{"bufferView":5,"byteOffset":48,"componentType":5126,"count":2,"type":"VEC3","name":"accessorAnimationScales"},{"bufferView":4,"byteOffset":24,"componentType":5126,"count":2,"max":[0.625],"min":[0.0],"type":"SCALAR","name":"accessorAnimationInput"},{"bufferView":5,"byteOffset":72,"componentType":5126,"count":2,"type":"VEC3","name":"accessorAnimationPositions"},{"bufferView":4,"byteOffset":32,"componentType":5126,"count":2,"max":[0.625],"min":[0.0],"type":"SCALAR","name":"accessorAnimationInput"},{"bufferView":5,"byteOffset":96,"componentType":5126,"count":2,"type":"VEC3","name":"accessorAnimationPositions"},{"bufferView":4,"byteOffset":40,"componentType":5126,"count":2,"max":[0.5833333],"min":[0.0],"type":"SCALAR","name":"accessorAnimationInput"},{"bufferView":5,"byteOffset":120,"componentType":5126,"count":2,"type":"VEC3","name":"accessorAnimationScales"},{"bufferView":4,"byteOffset":48,"componentType":5126,"count":2,"max":[0.5833333],"min":[0.0],"type":"SCALAR","name":"accessorAnimationInput"},{"bufferView":5,"byteOffset":144,"componentType":5126,"count":2,"type":"VEC3","name":"accessorAnimationPositions"},{"bufferView":4,"byteOffset":56,"componentType":5126,"count":2,"max":[0.5833333],"min":[0.0],"type":"SCALAR","name":"accessorAnimationInput"},{"bufferView":5,"byteOffset":168,"componentType":5126,"count":2,"type":"VEC3","name":"accessorAnimationScales"},{"bufferView":4,"byteOffset":64,"componentType":5126,"count":2,"max":[0.5833333],"min":[0.0],"type":"SCALAR","name":"accessorAnimationInput"},{"bufferView":5,"byteOffset":192,"componentType":5126,"count":2,"type":"VEC3","name":"accessorAnimationPositions"},{"bufferView":4,"byteOffset":72,"componentType":5126,"count":2,"max":[0.5833333],"min":[0.0],"type":"SCALAR","name":"accessorAnimationInput"},{"bufferView":5,"byteOffset":216,"componentType":5126,"count":2,"type":"VEC3","name":"accessorAnimationPositions"},{"bufferView":4,"byteOffset":80,"componentType":5126,"count":2,"max":[0.5833333],"min":[0.0],"type":"SCALAR","name":"accessorAnimationInput"},{"bufferView":5,"byteOffset":240,"componentType":5126,"count":2,"type":"VEC3","name":"accessorAnimationScales"},{"bufferView":4,"byteOffset":88,"componentType":5126,"count":2,"max":[0.5833333],"min":[0.0],"type":"SCALAR","name":"accessorAnimationInput"},{"bufferView":5,"byteOffset":264,"componentType":5126,"count":2,"type":"VEC3","name":"accessorAnimationPositions"},{"bufferView":4,"byteOffset":96,"componentType":5126,"count":2,"max":[0.5833333],"min":[0.0],"type":"SCALAR","name":"accessorAnimationInput"},{"bufferView":5,"byteOffset":288,"componentType":5126,"count":2,"type":"VEC3","name":"accessorAnimationScales"},{"bufferView":4,"byteOffset":104,"componentType":5126,"count":2,"max":[0.5833333],"min":[0.0],"type":"SCALAR","name":"accessorAnimationInput"},{"bufferView":5,"byteOffset":312,"componentType":5126,"count":2,"type":"VEC3","name":"accessorAnimationPositions"},{"bufferView":4,"byteOffset":112,"componentType":5126,"count":2,"max":[0.5833333],"min":[0.0],"type":"SCALAR","name":"accessorAnimationInput"},{"bufferView":5,"byteOffset":336,"componentType":5126,"count":2,"type":"VEC3","name":"accessorAnimationPositions"},{"bufferView":4,"byteOffset":120,"componentType":5126,"count":2,"max":[0.5833333],"min":[0.0],"type":"SCALAR","name":"accessorAnimationInput"},{"bufferView":5,"byteOffset":360,"componentType":5126,"count":2,"type":"VEC3","name":"accessorAnimationScales"},{"bufferView":4,"byteOffset":128,"componentType":5126,"count":2,"max":[0.5833333],"min":[0.0],"type":"SCALAR","name":"accessorAnimationInput"},{"bufferView":5,"byteOffset":384,"componentType":5126,"count":2,"type":"VEC3","name":"accessorAnimationPositions"},{"bufferView":4,"byteOffset":136,"componentType":5126,"count":2,"max":[0.5833333],"min":[0.0],"type":"SCALAR","name":"accessorAnimationInput"},{"bufferView":5,"byteOffset":408,"componentType":5126,"count":2,"type":"VEC3","name":"accessorAnimationScales"},{"bufferView":4,"byteOffset":144,"componentType":5126,"count":2,"max":[0.5833333],"min":[0.0],"type":"SCALAR","name":"accessorAnimationInput"},{"bufferView":5,"byteOffset":432,"componentType":5126,"count":2,"type":"VEC3","name":"accessorAnimationPositions"},{"bufferView":4,"byteOffset":152,"componentType":5126,"count":2,"max":[0.5833333],"min":[0.0],"type":"SCALAR","name":"accessorAnimationInput"},{"bufferView":5,"byteOffset":456,"componentType":5126,"count":2,"type":"VEC3","name":"accessorAnimationPositions"},{"bufferView":4,"byteOffset":160,"componentType":5126,"count":2,"max":[0.5833333],"min":[0.0],"type":"SCALAR","name":"accessorAnimationInput"},{"bufferView":5,"byteOffset":480,"componentType":5126,"count":2,"type":"VEC3","name":"accessorAnimationScales"},{"bufferView":4,"byteOffset":168,"componentType":5126,"count":2,"max":[0.5833333],"min":[0.0],"type":"SCALAR","name":"accessorAnimationInput"},{"bufferView":5,"byteOffset":504,"componentType":5126,"count":2,"type":"VEC3","name":"accessorAnimationPositions"},{"bufferView":4,"byteOffset":176,"componentType":5126,"count":2,"max":[0.5833333],"min":[0.0],"type":"SCALAR","name":"accessorAnimationInput"},{"bufferView":5,"byteOffset":528,"componentType":5126,"count":2,"type":"VEC3","name":"accessorAnimationScales"},{"bufferView":4,"byteOffset":184,"componentType":5126,"count":2,"max":[0.5833333],"min":[0.0],"type":"SCALAR","name":"accessorAnimationInput"},{"bufferView":5,"byteOffset":552,"componentType":5126,"count":2,"type":"VEC3","name":"accessorAnimationPositions"},{"bufferView":4,"byteOffset":192,"componentType":5126,"count":2,"max":[0.5833333],"min":[0.0],"type":"SCALAR","name":"accessorAnimationInput"},{"bufferView":5,"byteOffset":576,"componentType":5126,"count":2,"type":"VEC3","name":"accessorAnimationPositions"},{"bufferView":4,"byteOffset":200,"componentType":5126,"count":2,"max":[0.5833333],"min":[0.0],"type":"SCALAR","name":"accessorAnimationInput"},{"bufferView":5,"byteOffset":600,"componentType":5126,"count":2,"type":"VEC3","name":"accessorAnimationScales"},{"bufferView":4,"byteOffset":208,"componentType":5126,"count":2,"max":[0.5833333],"min":[0.0],"type":"SCALAR","name":"accessorAnimationInput"},{"bufferView":5,"byteOffset":624,"componentType":5126,"count":2,"type":"VEC3","name":"accessorAnimationPositions"},{"bufferView":4,"byteOffset":216,"componentType":5126,"count":2,"max":[0.5833333],"min":[0.0],"type":"SCALAR","name":"accessorAnimationInput"},{"bufferView":5,"byteOffset":648,"componentType":5126,"count":2,"type":"VEC3","name":"accessorAnimationScales"},{"bufferView":4,"byteOffset":224,"componentType":5126,"count":2,"max":[0.5833333],"min":[0.0],"type":"SCALAR","name":"accessorAnimationInput"},{"bufferView":5,"byteOffset":672,"componentType":5126,"count":2,"type":"VEC3","name":"accessorAnimationPositions"},{"bufferView":4,"byteOffset":232,"componentType":5126,"count":2,"max":[0.5833333],"min":[0.0],"type":"SCALAR","name":"accessorAnimationInput"},{"bufferView":5,"byteOffset":696,"componentType":5126,"count":2,"type":"VEC3","name":"accessorAnimationPositions"}],"bufferViews":[{"buffer":0,"byteLength":78768,"name":"bufferViewScalar"},{"buffer":0,"byteOffset":78768,"byteLength":786144,"byteStride":12,"name":"bufferViewFloatVec3"},{"buffer":0,"byteOffset":864912,"byteLength":386064,"byteStride":16,"name":"bufferViewFloatVec4"},{"buffer":0,"byteOffset":1250976,"byteLength":262080,"byteStride":8,"name":"bufferViewFloatVec2"},{"buffer":0,"byteOffset":1513056,"byteLength":240,"name":"bufferViewAnimationFloatScalar"},{"buffer":0,"byteOffset":1513296,"byteLength":720,"name":"bufferViewAnimationFloatVec3"}],"buffers":[{"uri":"environment.bin","byteLength":1514016}],"materials":[{"pbrMetallicRoughness":{"baseColorFactor":[0.0,0.0,0.0,1.0],"metallicFactor":0.0,"roughnessFactor":0.0},"emissiveTexture":{"index":0,"texCoord":0},"emissiveFactor":[1.0,1.0,1.0],"alphaMode":"OPAQUE","name":"aodi_carg:StingrayPBS2"},{"pbrMetallicRoughness":{"baseColorFactor":[0.0,0.0,0.0,1.0],"metallicFactor":0.0,"roughnessFactor":1.0},"emissiveFactor":[0.0,0.0,0.0],"alphaMode":"OPAQUE","name":"aodi_carg:StingrayPBS4"},{"pbrMetallicRoughness":{"baseColorFactor":[0.5,0.5,0.5,1.0],"metallicFactor":0.0,"roughnessFactor":0.450053632},"emissiveFactor":[0.0,0.0,0.0],"alphaMode":"OPAQUE","name":"lambert1"},{"pbrMetallicRoughness":{"baseColorFactor":[0.0,0.0,0.0,1.0],"metallicFactor":0.0,"roughnessFactor":1.0},"emissiveTexture":{"index":1,"texCoord":0},"emissiveFactor":[1.0,1.0,1.0],"alphaMode":"OPAQUE","name":"aodi_carg:StingrayPBS3"},{"pbrMetallicRoughness":{"baseColorFactor":[0.17992799,0.193542048,0.196,1.0],"metallicFactor":0.2,"roughnessFactor":1.0},"emissiveFactor":[0.3384913,0.3384913,0.3384913],"alphaMode":"OPAQUE","name":"aodi_carg:StingrayPBS17"},{"pbrMetallicRoughness":{"baseColorFactor":[0.0,0.0,0.0,1.0],"metallicFactor":0.0,"roughnessFactor":1.0},"emissiveTexture":{"index":2,"texCoord":0},"emissiveFactor":[1.0,1.0,1.0],"alphaMode":"OPAQUE","name":"aodi_carg:StingrayPBS6"},{"pbrMetallicRoughness":{"baseColorFactor":[0.775067747,0.775067747,0.775067747,1.0],"metallicFactor":0.0,"roughnessFactor":1.0},"emissiveFactor":[0.192816108,0.192816108,0.192816108],"alphaMode":"OPAQUE","name":"aodi_carg:StingrayPBS18"}],"textures":[{"sampler":0,"source":0,"name":"Obj3d66-826820-34-246VRayCompleteMap.png"},{"sampler":1,"source":1,"name":"ObjectVRayCompleteMap.png"},{"sampler":2,"source":2,"name":"b.png"}],"images":[{"uri":"Obj3d66-826820-34-246VRayCompleteMap.png"},{"uri":"ObjectVRayCompleteMap.png"},{"uri":"b.png"}],"samplers":[{"magFilter":9729,"minFilter":9987,"wrapS":10497,"wrapT":10497},{"magFilter":9729,"minFilter":9987,"wrapS":10497,"wrapT":10497},{"magFilter":9729,"minFilter":9987,"wrapS":10497,"wrapT":10497}],"animations":[{"channels":[{"sampler":0,"target":{"node":0,"path":"scale"}},{"sampler":1,"target":{"node":0,"path":"translation"}},{"sampler":2,"target":{"node":3,"path":"scale"}},{"sampler":3,"target":{"node":3,"path":"translation"}},{"sampler":4,"target":{"node":6,"path":"translation"}}],"samplers":[{"input":35,"interpolation":"LINEAR","output":36},{"input":37,"interpolation":"LINEAR","output":38},{"input":39,"interpolation":"LINEAR","output":40},{"input":41,"interpolation":"LINEAR","output":42},{"input":43,"interpolation":"LINEAR","output":44}],"name":"a"},{"channels":[{"sampler":0,"target":{"node":0,"path":"scale"}},{"sampler":1,"target":{"node":0,"path":"translation"}},{"sampler":2,"target":{"node":3,"path":"scale"}},{"sampler":3,"target":{"node":3,"path":"translation"}},{"sampler":4,"target":{"node":6,"path":"translation"}}],"samplers":[{"input":45,"interpolation":"LINEAR","output":46},{"input":47,"interpolation":"LINEAR","output":48},{"input":49,"interpolation":"LINEAR","output":50},{"input":51,"interpolation":"LINEAR","output":52},{"input":53,"interpolation":"LINEAR","output":54}],"name":"b"},{"channels":[{"sampler":0,"target":{"node":0,"path":"scale"}},{"sampler":1,"target":{"node":0,"path":"translation"}},{"sampler":2,"target":{"node":3,"path":"scale"}},{"sampler":3,"target":{"node":3,"path":"translation"}},{"sampler":4,"target":{"node":6,"path":"translation"}}],"samplers":[{"input":55,"interpolation":"LINEAR","output":56},{"input":57,"interpolation":"LINEAR","output":58},{"input":59,"interpolation":"LINEAR","output":60},{"input":61,"interpolation":"LINEAR","output":62},{"input":63,"interpolation":"LINEAR","output":64}],"name":"c"},{"channels":[{"sampler":0,"target":{"node":0,"path":"scale"}},{"sampler":1,"target":{"node":0,"path":"translation"}},{"sampler":2,"target":{"node":3,"path":"scale"}},{"sampler":3,"target":{"node":3,"path":"translation"}},{"sampler":4,"target":{"node":6,"path":"translation"}}],"samplers":[{"input":65,"interpolation":"LINEAR","output":66},{"input":67,"interpolation":"LINEAR","output":68},{"input":69,"interpolation":"LINEAR","output":70},{"input":71,"interpolation":"LINEAR","output":72},{"input":73,"interpolation":"LINEAR","output":74}],"name":"d"},{"channels":[{"sampler":0,"target":{"node":0,"path":"scale"}},{"sampler":1,"target":{"node":0,"path":"translation"}},{"sampler":2,"target":{"node":3,"path":"scale"}},{"sampler":3,"target":{"node":3,"path":"translation"}},{"sampler":4,"target":{"node":6,"path":"translation"}}],"samplers":[{"input":75,"interpolation":"LINEAR","output":76},{"input":77,"interpolation":"LINEAR","output":78},{"input":79,"interpolation":"LINEAR","output":80},{"input":81,"interpolation":"LINEAR","output":82},{"input":83,"interpolation":"LINEAR","output":84}],"name":"e"},{"channels":[{"sampler":0,"target":{"node":0,"path":"scale"}},{"sampler":1,"target":{"node":0,"path":"translation"}},{"sampler":2,"target":{"node":3,"path":"scale"}},{"sampler":3,"target":{"node":3,"path":"translation"}},{"sampler":4,"target":{"node":6,"path":"translation"}}],"samplers":[{"input":85,"interpolation":"LINEAR","output":86},{"input":87,"interpolation":"LINEAR","output":88},{"input":89,"interpolation":"LINEAR","output":90},{"input":91,"interpolation":"LINEAR","output":92},{"input":93,"interpolation":"LINEAR","output":94}],"name":"f"}]}