{
  "accessors": [
    {
      "bufferView": 1,
      "componentType": 5126,
      "count": 65532,
      "max": [
        12.14142894744873,
        11.199494361877441,
        14.160263061523438
      ],
      "min": [
        -12.03349781036377,
        -21.121831893920898,
        -12.757070541381836
      ],
      "type": "VEC3"
    },
    {
      "bufferView": 1,
      "byteOffset": 786384,
      "componentType": 5126,
      "count": 65532,
      "max": [
        0.99998944997787476,
        0.99997889995574951,
        0.99993836879730225
      ],
      "min": [
        -0.99998569488525391,
        -0.99999719858169556,
        -0.9999992847442627
      ],
      "type": "VEC3"
    },
    {
      "bufferView": 0,
      "componentType": 5125,
      "count": 315687,
      "max": [
        65531
      ],
      "min": [
        0
      ],
      "type": "SCALAR"
    },
    {
      "bufferView": 1,
      "byteOffset": 1572768,
      "componentType": 5126,
      "count": 65532,
      "max": [
        12.138679504394531,
        8.847203254699707,
        14.154850006103516
      ],
      "min": [
        -12.124370574951172,
        -20.41241455078125,
        -14.803812980651855
      ],
      "type": "VEC3"
    },
    {
      "bufferView": 1,
      "byteOffset": 2359152,
      "componentType": 5126,
      "count": 65532,
      "max": [
        0.99998730421066284,
        0.99996960163116455,
        0.99999517202377319
      ],
      "min": [
        -0.99999856948852539,
        -0.99998563528060913,
        -0.99996328353881836
      ],
      "type": "VEC3"
    },
    {
      "bufferView": 0,
      "byteOffset": 1262748,
      "componentType": 5125,
      "count": 311127,
      "max": [
        65531
      ],
      "min": [
        0
      ],
      "type": "SCALAR"
    },
    {
      "bufferView": 1,
      "byteOffset": 3145536,
      "componentType": 5126,
      "count": 65532,
      "max": [
        11.893879890441895,
        11.070743560791016,
        13.915541648864746
      ],
      "min": [
        -11.883700370788574,
        -21.199533462524414,
        -14.575977325439453
      ],
      "type": "VEC3"
    },
    {
      "bufferView": 1,
      "byteOffset": 3931920,
      "componentType": 5126,
      "count": 65532,
      "max": [
        0.99999558925628662,
        0.99985146522521973,
        0.99980616569519043
      ],
      "min": [
        -0.99997895956039429,
        -0.99996602535247803,
        -0.99999940395355225
      ],
      "type": "VEC3"
    },
    {
      "bufferView": 0,
      "byteOffset": 2507256,
      "componentType": 5125,
      "count": 317262,
      "max": [
        65531
      ],
      "min": [
        0
      ],
      "type": "SCALAR"
    },
    {
      "bufferView": 1,
      "byteOffset": 4718304,
      "componentType": 5126,
      "count": 65532,
      "max": [
        11.838000297546387,
        11.199494361877441,
        13.513982772827148
      ],
      "min": [
        -12.051070213317871,
        -21.313495635986328,
        -14.865036964416504
      ],
      "type": "VEC3"
    },
    {
      "bufferView": 1,
      "byteOffset": 5504688,
      "componentType": 5126,
      "count": 65532,
      "max": [
        0.99999499320983887,
        0.99997800588607788,
        0.99998635053634644
      ],
      "min": [
        -0.99999713897705078,
        -0.99997305870056152,
        -0.99999982118606567
      ],
      "type": "VEC3"
    },
    {
      "bufferView": 0,
      "byteOffset": 3776304,
      "componentType": 5125,
      "count": 313656,
      "max": [
        65531
      ],
      "min": [
        0
      ],
      "type": "SCALAR"
    },
    {
      "bufferView": 1,
      "byteOffset": 6291072,
      "componentType": 5126,
      "count": 65532,
      "max": [
        12.036507606506348,
        11.13139820098877,
        14.056118011474609
      ],
      "min": [
        -12.109895706176758,
        -20.998138427734375,
        -14.865036964416504
      ],
      "type": "VEC3"
    },
    {
      "bufferView": 1,
      "byteOffset": 7077456,
      "componentType": 5126,
      "count": 65532,
      "max": [
        0.99999833106994629,
        0.9999922513961792,
        0.99998635053634644
      ],
      "min": [
        -0.99999856948852539,
        -0.99991887807846069,
        -0.99999982118606567
      ],
      "type": "VEC3"
    },
    {
      "bufferView": 0,
      "byteOffset": 5030928,
      "componentType": 5125,
      "count": 314004,
      "max": [
        65531
      ],
      "min": [
        0
      ],
      "type": "SCALAR"
    },
    {
      "bufferView": 1,
      "byteOffset": 7863840,
      "componentType": 5126,
      "count": 65532,
      "max": [
        12.05119800567627,
        11.199494361877441,
        14.157016754150391
      ],
      "min": [
        -12.102692604064941,
        -21.309062957763672,
        -14.821168899536133
      ],
      "type": "VEC3"
    },
    {
      "bufferView": 1,
      "byteOffset": 8650224,
      "componentType": 5126,
      "count": 65532,
      "max": [
        0.99999833106994629,
        0.99997800588607788,
        0.99999505281448364
      ],
      "min": [
        -0.99998259544372559,
        -0.99998563528060913,
        -0.99995648860931396
      ],
      "type": "VEC3"
    },
    {
      "bufferView": 0,
      "byteOffset": 6286944,
      "componentType": 5125,
      "count": 196296,
      "max": [
        65531
      ],
      "min": [
        0
      ],
      "type": "SCALAR"
    },
    {
      "bufferView": 1,
      "byteOffset": 9436608,
      "componentType": 5126,
      "count": 19055,
      "max": [
        12.075024604797363,
        11.101719856262207,
        14.1529541015625
      ],
      "min": [
        -12.078271865844727,
        -21.313495635986328,
        -14.689971923828125
      ],
      "type": "VEC3"
    },
    {
      "bufferView": 1,
      "byteOffset": 9665268,
      "componentType": 5126,
      "count": 19055,
      "max": [
        0.99993515014648438,
        0.99991422891616821,
        0.99984437227249146
      ],
      "min": [
        -0.99999856948852539,
        -0.99984937906265259,
        -0.99987548589706421
      ],
      "type": "VEC3"
    },
    {
      "bufferView": 0,
      "byteOffset": 7072128,
      "componentType": 5125,
      "count": 24990,
      "max": [
        19054
      ],
      "min": [
        0
      ],
      "type": "SCALAR"
    }
  ],
  "asset": {
    "extras": {
      "author": "Privalov (https://sketchfab.com/Privalov)",
      "license": "SKETCHFAB Standard (https://sketchfab.com/licenses)",
      "source": "https://sketchfab.com/models/226a093756a84544b1f6f31f95e571d1",
      "title": "Bull ring"
    },
    "generator": "Sketchfab-3.18.5",
    "version": "2.0"
  },
  "bufferViews": [
    {
      "buffer": 0,
      "byteLength": 7172088,
      "byteOffset": 0,
      "name": "floatBufferViews",
      "target": 34963
    },
    {
      "buffer": 0,
      "byteLength": 9893928,
      "byteOffset": 7172088,
      "byteStride": 12,
      "name": "floatBufferViews",
      "target": 34962
    }
  ],
  "buffers": [
    {
      "byteLength": 17066016,
      "uri": "scene.bin"
    }
  ],
  "materials": [
    {
      "doubleSided": true,
      "emissiveFactor": [
        0,
        0,
        0
      ],
      "name": "Scene_-_Root",
      "pbrMetallicRoughness": {
        "baseColorFactor": [
          1,
          1,
          1,
          1
        ],
        "metallicFactor": 1,
        "roughnessFactor": 0.19340701220000001
      }
    }
  ],
  "meshes": [
    {
      "primitives": [
        {
          "attributes": {
            "NORMAL": 1,
            "POSITION": 0
          },
          "indices": 2,
          "material": 0,
          "mode": 4
        }
      ]
    },
    {
      "primitives": [
        {
          "attributes": {
            "NORMAL": 4,
            "POSITION": 3
          },
          "indices": 5,
          "material": 0,
          "mode": 4
        }
      ]
    },
    {
      "primitives": [
        {
          "attributes": {
            "NORMAL": 7,
            "POSITION": 6
          },
          "indices": 8,
          "material": 0,
          "mode": 4
        }
      ]
    },
    {
      "primitives": [
        {
          "attributes": {
            "NORMAL": 10,
            "POSITION": 9
          },
          "indices": 11,
          "material": 0,
          "mode": 4
        }
      ]
    },
    {
      "primitives": [
        {
          "attributes": {
            "NORMAL": 13,
            "POSITION": 12
          },
          "indices": 14,
          "material": 0,
          "mode": 4
        }
      ]
    },
    {
      "primitives": [
        {
          "attributes": {
            "NORMAL": 16,
            "POSITION": 15
          },
          "indices": 17,
          "material": 0,
          "mode": 4
        }
      ]
    },
    {
      "primitives": [
        {
          "attributes": {
            "NORMAL": 19,
            "POSITION": 18
          },
          "indices": 20,
          "material": 0,
          "mode": 4
        }
      ]
    }
  ],
  "nodes": [
    {
      "children": [
        1
      ],
      "name": "RootNode (gltf orientation matrix)",
      "rotation": [
        -0.70710678118654746,
        -0,
        -0,
        0.70710678118654757
      ]
    },
    {
      "children": [
        2
      ],
      "name": "RootNode (model correction matrix)"
    },
    {
      "children": [
        3,
        4,
        5,
        6,
        7,
        8,
        9
      ],
      "name": "BRf.stl.cleaner.materialmerger.gles"
    },
    {
      "mesh": 0,
      "name": ""
    },
    {
      "mesh": 1,
      "name": ""
    },
    {
      "mesh": 2,
      "name": ""
    },
    {
      "mesh": 3,
      "name": ""
    },
    {
      "mesh": 4,
      "name": ""
    },
    {
      "mesh": 5,
      "name": ""
    },
    {
      "mesh": 6,
      "name": ""
    }
  ],
  "scene": 0,
  "scenes": [
    {
      "name": "OSG_Scene",
      "nodes": [
        0
      ]
    }
  ]
}

