{"asset":{"version":"2.0","generator":"babylon.js glTF exporter for 3ds max 2019 v1.3.33"},"scene":0,"scenes":[{"nodes":[0,1,2,3,4,5,6,7,8,9],"extensions":{}}],"nodes":[{"mesh":0,"translation":[212.479446,107.492195,-451.09613],"rotation":[0.0,0.0,0.0,1.0],"scale":[289.970825,289.970825,289.970825],"name":"Main_3"},{"mesh":1,"translation":[212.479446,107.492195,-451.09613],"rotation":[0.0,0.0,0.0,1.0],"scale":[289.970825,289.970825,289.970825],"name":"Main_1"},{"mesh":2,"translation":[212.479446,107.492195,-451.09613],"rotation":[0.0,0.0,0.0,1.0],"scale":[289.970825,289.970825,289.970825],"name":"River"},{"mesh":3,"translation":[212.479446,107.492195,-451.09613],"rotation":[0.0,0.0,0.0,1.0],"scale":[289.970825,289.970825,289.970825],"name":"Main_2"},{"mesh":4,"translation":[212.479446,107.492195,-451.09613],"rotation":[0.0,0.0,0.0,1.0],"scale":[289.970825,289.970825,289.970825],"name":"CHuan"},{"mesh":5,"translation":[212.479446,107.492195,-451.09613],"rotation":[0.0,0.0,0.0,1.0],"scale":[289.970825,289.970825,289.970825],"name":"BuildingAround"},{"mesh":6,"translation":[212.479446,107.492195,-451.09613],"rotation":[0.0,0.0,0.0,1.0],"scale":[289.970825,289.970825,289.970825],"name":"RiverOnly"},{"mesh":7,"translation":[-357.050659,166.913742,-372.532227],"rotation":[0.0,0.0,0.0,1.0],"scale":[0.06228908,0.06228908,0.06228908],"name":"Box001camera"},{"mesh":8,"translation":[-307.7765,138.823288,-403.128479],"rotation":[0.0,0.0,0.0,1.0],"scale":[0.050392,0.050392,0.050392],"name":"Sphere001lookat"},{"translation":[0.0,0.0,0.0],"rotation":[0.0,0.0,0.0,1.0],"scale":[1.0,1.0,1.0],"name":"Default light"}],"meshes":[{"primitives":[{"attributes":{"POSITION":1,"NORMAL":2,"TEXCOORD_0":3},"indices":0,"mode":4,"material":0}],"name":"Main_3"},{"primitives":[{"attributes":{"POSITION":5,"NORMAL":6,"TEXCOORD_0":7},"indices":4,"mode":4,"material":1}],"name":"Main_1"},{"primitives":[{"attributes":{"POSITION":9,"NORMAL":10,"TEXCOORD_0":11},"indices":8,"mode":4,"material":2}],"name":"River"},{"primitives":[{"attributes":{"POSITION":13,"NORMAL":14,"TEXCOORD_0":15},"indices":12,"mode":4,"material":3}],"name":"Main_2"},{"primitives":[{"attributes":{"POSITION":17,"NORMAL":18,"TEXCOORD_0":19},"indices":16,"mode":4,"material":4}],"name":"CHuan"},{"primitives":[{"attributes":{"POSITION":21,"NORMAL":22,"TEXCOORD_0":23},"indices":20,"mode":4,"material":5}],"name":"BuildingAround"},{"primitives":[{"attributes":{"POSITION":25,"NORMAL":26,"TEXCOORD_0":27},"indices":24,"mode":4,"material":6}],"name":"RiverOnly"},{"primitives":[{"attributes":{"POSITION":29,"NORMAL":30,"TEXCOORD_0":31},"indices":28}],"name":"Box001camera"},{"primitives":[{"attributes":{"POSITION":33,"NORMAL":34,"TEXCOORD_0":35},"indices":32}],"name":"Sphere001lookat"}],"accessors":[{"bufferView":0,"componentType":5123,"count":46992,"type":"SCALAR","name":"accessorIndices"},{"bufferView":1,"componentType":5126,"count":46992,"max":[0.42839992,0.850999951,3.08449984],"min":[-0.270699948,-0.355699956,1.11259985],"type":"VEC3","name":"accessorPositions"},{"bufferView":1,"byteOffset":563904,"componentType":5126,"count":46992,"type":"VEC3","name":"accessorNormals"},{"bufferView":2,"componentType":5126,"count":46992,"type":"VEC2","name":"accessorUVs"},{"bufferView":0,"byteOffset":93984,"componentType":5123,"count":20922,"type":"SCALAR","name":"accessorIndices"},{"bufferView":1,"byteOffset":1127808,"componentType":5126,"count":20922,"max":[-0.209099948,0.2331,2.86029983],"min":[-2.3058,-0.343799978,1.21649992],"type":"VEC3","name":"accessorPositions"},{"bufferView":1,"byteOffset":1378872,"componentType":5126,"count":20922,"type":"VEC3","name":"accessorNormals"},{"bufferView":2,"byteOffset":375936,"componentType":5126,"count":20922,"type":"VEC2","name":"accessorUVs"},{"bufferView":0,"byteOffset":135828,"componentType":5123,"count":2253,"type":"SCALAR","name":"accessorIndices"},{"bufferView":1,"byteOffset":1629936,"componentType":5126,"count":2253,"max":[1.6921,-0.343599975,3.5994997],"min":[-2.86479974,-0.370699972,-0.508499861],"type":"VEC3","name":"accessorPositions"},{"bufferView":1,"byteOffset":1656972,"componentType":5126,"count":2253,"type":"VEC3","name":"accessorNormals"},{"bufferView":2,"byteOffset":543312,"componentType":5126,"count":2253,"type":"VEC2","name":"accessorUVs"},{"bufferView":0,"byteOffset":140336,"componentType":5123,"count":24360,"type":"SCALAR","name":"accessorIndices"},{"bufferView":1,"byteOffset":1684008,"componentType":5126,"count":24360,"max":[1.079,0.176499963,3.5218997],"min":[-0.115699947,-0.347299963,1.27279985],"type":"VEC3","name":"accessorPositions"},{"bufferView":1,"byteOffset":1976328,"componentType":5126,"count":24360,"type":"VEC3","name":"accessorNormals"},{"bufferView":2,"byteOffset":561336,"componentType":5126,"count":24360,"type":"VEC2","name":"accessorUVs"},{"bufferView":0,"byteOffset":189056,"componentType":5123,"count":19386,"type":"SCALAR","name":"accessorIndices"},{"bufferView":1,"byteOffset":2268648,"componentType":5126,"count":19386,"max":[0.795599937,-0.284099966,3.73729944],"min":[-1.39959979,-0.38259998,2.90129972],"type":"VEC3","name":"accessorPositions"},{"bufferView":1,"byteOffset":2501280,"componentType":5126,"count":19386,"type":"VEC3","name":"accessorNormals"},{"bufferView":2,"byteOffset":756216,"componentType":5126,"count":19386,"type":"VEC2","name":"accessorUVs"},{"bufferView":0,"byteOffset":227828,"componentType":5123,"count":8358,"type":"SCALAR","name":"accessorIndices"},{"bufferView":1,"byteOffset":2733912,"componentType":5126,"count":8358,"max":[1.3885,-0.210499987,1.44559979],"min":[-2.0244,-0.343599975,-0.14260006],"type":"VEC3","name":"accessorPositions"},{"bufferView":1,"byteOffset":2834208,"componentType":5126,"count":8358,"type":"VEC3","name":"accessorNormals"},{"bufferView":2,"byteOffset":911304,"componentType":5126,"count":8358,"type":"VEC2","name":"accessorUVs"},{"bufferView":0,"byteOffset":244544,"componentType":5123,"count":483,"type":"SCALAR","name":"accessorIndices"},{"bufferView":1,"byteOffset":2934504,"componentType":5126,"count":483,"max":[2.05759978,-0.340999961,4.00379944],"min":[-3.0692997,-0.498699933,0.468799949],"type":"VEC3","name":"accessorPositions"},{"bufferView":1,"byteOffset":2940300,"componentType":5126,"count":483,"type":"VEC3","name":"accessorNormals"},{"bufferView":2,"byteOffset":978168,"componentType":5126,"count":483,"type":"VEC2","name":"accessorUVs"},{"bufferView":0,"byteOffset":245512,"componentType":5123,"count":36,"type":"SCALAR","name":"accessorIndices"},{"bufferView":1,"byteOffset":2946096,"componentType":5126,"count":36,"max":[49.99951,50.0,49.99951],"min":[-50.0,-50.0002441,-50.0],"type":"VEC3","name":"accessorPositions"},{"bufferView":1,"byteOffset":2946528,"componentType":5126,"count":36,"type":"VEC3","name":"accessorNormals"},{"bufferView":2,"byteOffset":982032,"componentType":5126,"count":36,"type":"VEC2","name":"accessorUVs"},{"bufferView":0,"byteOffset":245584,"componentType":5123,"count":24,"type":"SCALAR","name":"accessorIndices"},{"bufferView":1,"byteOffset":2946960,"componentType":5126,"count":24,"max":[60.00049,59.9997559,60.0],"min":[-60.0,-60.0,-60.0],"type":"VEC3","name":"accessorPositions"},{"bufferView":1,"byteOffset":2947248,"componentType":5126,"count":24,"type":"VEC3","name":"accessorNormals"},{"bufferView":2,"byteOffset":982320,"componentType":5126,"count":24,"type":"VEC2","name":"accessorUVs"},{"bufferView":3,"componentType":5126,"count":101,"max":[3.33333325],"min":[0.0],"type":"SCALAR","name":"accessorAnimationInput"},{"bufferView":4,"componentType":5126,"count":101,"type":"VEC3","name":"accessorAnimationPositions"},{"bufferView":3,"byteOffset":404,"componentType":5126,"count":101,"max":[3.33333325],"min":[0.0],"type":"SCALAR","name":"accessorAnimationInput"},{"bufferView":4,"byteOffset":1212,"componentType":5126,"count":101,"type":"VEC3","name":"accessorAnimationPositions"}],"bufferViews":[{"buffer":0,"byteLength":245632,"name":"bufferViewScalar"},{"buffer":0,"byteOffset":245632,"byteLength":2947536,"byteStride":12,"name":"bufferViewFloatVec3"},{"buffer":0,"byteOffset":3193168,"byteLength":982512,"byteStride":8,"name":"bufferViewFloatVec2"},{"buffer":0,"byteOffset":4175680,"byteLength":808,"name":"bufferViewAnimationFloatScalar"},{"buffer":0,"byteOffset":4176488,"byteLength":2424,"name":"bufferViewAnimationFloatVec3"}],"buffers":[{"uri":"cityshanghai1.bin","byteLength":4178912}],"materials":[{"pbrMetallicRoughness":{"baseColorFactor":[1.0,1.0,1.0,1.0],"baseColorTexture":{"index":1,"texCoord":0},"metallicFactor":0.0,"roughnessFactor":0.9},"occlusionTexture":{"index":0,"texCoord":0},"emissiveFactor":[0.5882,0.5882,0.5882],"alphaMode":"BLEND","name":"SH-Cartoon_Main_3"},{"pbrMetallicRoughness":{"baseColorFactor":[1.0,1.0,1.0,1.0],"baseColorTexture":{"index":3,"texCoord":0},"metallicFactor":0.0,"roughnessFactor":0.9},"occlusionTexture":{"index":2,"texCoord":0},"emissiveFactor":[0.5882,0.5882,0.5882],"alphaMode":"BLEND","name":"SH-Cartoon_Main_1"},{"pbrMetallicRoughness":{"baseColorFactor":[1.0,1.0,1.0,1.0],"baseColorTexture":{"index":5,"texCoord":0},"metallicFactor":0.0,"roughnessFactor":0.9},"occlusionTexture":{"index":4,"texCoord":0},"emissiveFactor":[0.5882,0.5882,0.5882],"alphaMode":"BLEND","name":"SH-Cartoon_River"},{"pbrMetallicRoughness":{"baseColorFactor":[1.0,1.0,1.0,1.0],"baseColorTexture":{"index":7,"texCoord":0},"metallicFactor":0.0,"roughnessFactor":0.9},"occlusionTexture":{"index":6,"texCoord":0},"emissiveFactor":[0.5882,0.5882,0.5882],"alphaMode":"BLEND","name":"SH-Cartoon_Main_2"},{"pbrMetallicRoughness":{"baseColorFactor":[1.0,1.0,1.0,1.0],"baseColorTexture":{"index":9,"texCoord":0},"metallicFactor":0.0,"roughnessFactor":0.9},"occlusionTexture":{"index":8,"texCoord":0},"emissiveFactor":[0.5882,0.5882,0.5882],"alphaMode":"BLEND","name":"SH-Cartoon_CHuan"},{"pbrMetallicRoughness":{"baseColorFactor":[1.0,1.0,1.0,1.0],"baseColorTexture":{"index":11,"texCoord":0},"metallicFactor":0.0,"roughnessFactor":0.9},"occlusionTexture":{"index":10,"texCoord":0},"emissiveFactor":[0.5882,0.5882,0.5882],"alphaMode":"BLEND","name":"SH-Cartoon_BuildingAround"},{"pbrMetallicRoughness":{"baseColorFactor":[1.0,1.0,1.0,1.0],"baseColorTexture":{"index":5,"texCoord":0},"metallicFactor":0.0,"roughnessFactor":0.9},"occlusionTexture":{"index":4,"texCoord":0},"emissiveFactor":[0.5882,0.5882,0.5882],"alphaMode":"BLEND","name":"SH-Cartoon_08___Default"}],"textures":[{"sampler":0,"source":0,"name":"Main-3VRayCompleteMap.png"},{"sampler":0,"source":1,"name":"Main-3VRayCompleteMap.tga"},{"sampler":0,"source":2,"name":"Main_1VRayCompleteMap.png"},{"sampler":0,"source":3,"name":"Main_1VRayCompleteMap.tga"},{"sampler":0,"source":4,"name":"RiverVRayCompleteMap.png"},{"sampler":0,"source":5,"name":"RiverVRayCompleteMap.tga"},{"sampler":0,"source":6,"name":"Main_2VRayCompleteMap.png"},{"sampler":0,"source":7,"name":"Main_2VRayCompleteMap.tga"},{"sampler":0,"source":8,"name":"CHuanVRayCompleteMap.png"},{"sampler":0,"source":9,"name":"CHuanVRayCompleteMap.tga"},{"sampler":0,"source":10,"name":"BuildingAroundVRayCompleteMap.png"},{"sampler":0,"source":11,"name":"BuildingAroundVRayCompleteMap.tga"},{"sampler":0,"source":4,"name":"RiverVRayCompleteMap.png"},{"sampler":0,"source":5,"name":"RiverVRayCompleteMap.tga"}],"images":[{"uri":"Main-3VRayCompleteMap.png"},{"uri":"Main-3VRayCompleteMap.tga"},{"uri":"Main_1VRayCompleteMap.png"},{"uri":"Main_1VRayCompleteMap.tga"},{"uri":"RiverVRayCompleteMap.png"},{"uri":"RiverVRayCompleteMap.tga"},{"uri":"Main_2VRayCompleteMap.png"},{"uri":"Main_2VRayCompleteMap.tga"},{"uri":"CHuanVRayCompleteMap.png"},{"uri":"CHuanVRayCompleteMap.tga"},{"uri":"BuildingAroundVRayCompleteMap.png"},{"uri":"BuildingAroundVRayCompleteMap.tga"}],"samplers":[{"magFilter":9729,"minFilter":9987,"wrapS":10497,"wrapT":10497}],"animations":[{"channels":[{"sampler":0,"target":{"node":7,"path":"translation"}},{"sampler":1,"target":{"node":8,"path":"translation"}}],"samplers":[{"input":36,"interpolation":"LINEAR","output":37},{"input":38,"interpolation":"LINEAR","output":39}],"name":"All Animations"}]}