{"asset":{"version":"2.0","generator":"babylon.js glTF exporter for 3ds max 2019 v1.3.33"},"scene":0,"scenes":[{"nodes":[0,1,2,3,4,5,6,7,8,9],"extensions":{}}],"nodes":[{"translation":[7.3273,11.3080034,-28.6469612],"rotation":[0.0,0.0,0.0,1.0],"scale":[0.479938567,0.479938567,0.479938567],"name":"Camera001.Target"},{"mesh":0,"translation":[-31.0066242,11.3080044,44.3897934],"rotation":[0.0,0.0,0.0,1.0],"scale":[0.479938567,0.479938567,0.479938567],"name":"Box001"},{"mesh":1,"translation":[14.8848267,11.3080044,48.55265],"rotation":[0.0,0.0,0.0,1.0],"scale":[0.479938567,0.479938567,0.479938567],"name":"Torus001"},{"mesh":2,"translation":[-18.048439,11.3080044,15.1777658],"rotation":[0.0,0.0,0.0,1.0],"scale":[0.228221565,0.228221565,0.228221565],"name":"Tube001"},{"mesh":3,"translation":[23.6444435,11.3080044,5.542757],"rotation":[0.0,0.0,0.0,1.0],"scale":[0.192750275,0.192750275,0.192750275],"name":"Capsule001"},{"mesh":4,"translation":[6.02797937,11.3080034,-28.8043823],"rotation":[0.0,0.0,0.0,1.0],"scale":[0.479938567,0.479938567,0.479938567],"name":"GeoSphere001"},{"mesh":5,"translation":[1.59383011,11.3080044,-1.79002],"rotation":[0.0,0.0,0.0,1.0],"scale":[0.479938567,0.9762417,0.479938567],"name":"Box002"},{"mesh":6,"translation":[-4.97090149,43.28589,-19.69506],"rotation":[0.0,0.0,0.0,1.0],"scale":[0.186237454,0.186237454,0.186237454],"name":"GeoSphere002"},{"translation":[0.0,0.0,0.0],"rotation":[0.0,0.0,0.0,1.0],"scale":[1.0,1.0,1.0],"name":"Default light"},{"camera":0,"translation":[-20.9141083,43.28589,-12.6906891],"rotation":[-0.327671051,-0.466346353,-0.191221446,0.7991165],"scale":[0.479938567,0.479938567,0.479938567],"name":"Camera001"}],"cameras":[{"perspective":{"yfov":0.6024157,"zfar":1000.0,"znear":4.95},"type":"perspective","name":"Camera001"}],"meshes":[{"primitives":[{"attributes":{"POSITION":1,"NORMAL":2,"TEXCOORD_0":3},"indices":0}],"name":"Box001"},{"primitives":[{"attributes":{"POSITION":5,"NORMAL":6,"TEXCOORD_0":7},"indices":4}],"name":"Torus001"},{"primitives":[{"attributes":{"POSITION":9,"NORMAL":10,"TEXCOORD_0":11},"indices":8}],"name":"Tube001"},{"primitives":[{"attributes":{"POSITION":13,"NORMAL":14,"TEXCOORD_0":15},"indices":12}],"name":"Capsule001"},{"primitives":[{"attributes":{"POSITION":17,"NORMAL":18,"TEXCOORD_0":19},"indices":16}],"name":"GeoSphere001"},{"primitives":[{"attributes":{"POSITION":21,"NORMAL":22,"TEXCOORD_0":23},"indices":20}],"name":"Box002"},{"primitives":[{"attributes":{"POSITION":25,"NORMAL":26,"TEXCOORD_0":27},"indices":24}],"name":"GeoSphere002"}],"accessors":[{"bufferView":0,"componentType":5123,"count":36,"type":"SCALAR","name":"accessorIndices"},{"bufferView":1,"componentType":5126,"count":36,"max":[5.86194229,17.0282383,2.816246],"min":[-5.86195374,0.0,-2.81625366],"type":"VEC3","name":"accessorPositions"},{"bufferView":1,"byteOffset":432,"componentType":5126,"count":36,"type":"VEC3","name":"accessorNormals"},{"bufferView":2,"componentType":5126,"count":36,"type":"VEC2","name":"accessorUVs"},{"bufferView":0,"byteOffset":72,"componentType":5123,"count":1728,"type":"SCALAR","name":"accessorIndices"},{"bufferView":1,"byteOffset":864,"componentType":5126,"count":1728,"max":[29.4058933,5.854513,29.4058838],"min":[-29.4058914,-5.85451126,-29.4058914],"type":"VEC3","name":"accessorPositions"},{"bufferView":1,"byteOffset":21600,"componentType":5126,"count":1728,"type":"VEC3","name":"accessorNormals"},{"bufferView":2,"byteOffset":288,"componentType":5126,"count":1728,"type":"VEC2","name":"accessorUVs"},{"bufferView":0,"byteOffset":3528,"componentType":5123,"count":1296,"type":"SCALAR","name":"accessorIndices"},{"bufferView":1,"byteOffset":42336,"componentType":5126,"count":1296,"max":[21.4803467,21.7795,21.8117065],"min":[-21.4803467,0.0,-21.8117065],"type":"VEC3","name":"accessorPositions"},{"bufferView":1,"byteOffset":57888,"componentType":5126,"count":1296,"type":"VEC3","name":"accessorNormals"},{"bufferView":2,"byteOffset":14112,"componentType":5126,"count":1296,"type":"VEC2","name":"accessorUVs"},{"bufferView":0,"byteOffset":6120,"componentType":5123,"count":864,"type":"SCALAR","name":"accessorIndices"},{"bufferView":1,"byteOffset":73440,"componentType":5126,"count":864,"max":[13.308342,52.8467064,13.3083382],"min":[-13.308342,0.0,-13.3083353],"type":"VEC3","name":"accessorPositions"},{"bufferView":1,"byteOffset":83808,"componentType":5126,"count":864,"type":"VEC3","name":"accessorNormals"},{"bufferView":2,"byteOffset":24480,"componentType":5126,"count":864,"type":"VEC2","name":"accessorUVs"},{"bufferView":0,"byteOffset":7848,"componentType":5123,"count":24,"type":"SCALAR","name":"accessorIndices"},{"bufferView":1,"byteOffset":94176,"componentType":5126,"count":24,"max":[10.132349,10.1323471,10.1323471],"min":[-10.132349,-10.1323471,-10.1323433],"type":"VEC3","name":"accessorPositions"},{"bufferView":1,"byteOffset":94464,"componentType":5126,"count":24,"type":"VEC3","name":"accessorNormals"},{"bufferView":2,"byteOffset":31392,"componentType":5126,"count":24,"type":"VEC2","name":"accessorUVs"},{"bufferView":0,"byteOffset":7896,"componentType":5123,"count":36,"type":"SCALAR","name":"accessorIndices"},{"bufferView":1,"byteOffset":94752,"componentType":5126,"count":36,"max":[8.185141,23.2822075,6.37980652],"min":[-8.185142,0.0,-6.37980747],"type":"VEC3","name":"accessorPositions"},{"bufferView":1,"byteOffset":95184,"componentType":5126,"count":36,"type":"VEC3","name":"accessorNormals"},{"bufferView":2,"byteOffset":31584,"componentType":5126,"count":36,"type":"VEC2","name":"accessorUVs"},{"bufferView":0,"byteOffset":7968,"componentType":5123,"count":24,"type":"SCALAR","name":"accessorIndices"},{"bufferView":1,"byteOffset":95616,"componentType":5126,"count":24,"max":[18.4055481,18.4055481,18.4055557],"min":[-18.4055462,-18.4055481,-18.4055481],"type":"VEC3","name":"accessorPositions"},{"bufferView":1,"byteOffset":95904,"componentType":5126,"count":24,"type":"VEC3","name":"accessorNormals"},{"bufferView":2,"byteOffset":31872,"componentType":5126,"count":24,"type":"VEC2","name":"accessorUVs"},{"bufferView":3,"componentType":5126,"count":101,"max":[3.33333325],"min":[0.0],"type":"SCALAR","name":"accessorAnimationInput"},{"bufferView":4,"componentType":5126,"count":101,"type":"VEC3","name":"accessorAnimationPositions"},{"bufferView":3,"byteOffset":404,"componentType":5126,"count":100,"max":[3.33333325],"min":[0.0],"type":"SCALAR","name":"accessorAnimationInput"},{"bufferView":4,"byteOffset":1212,"componentType":5126,"count":100,"type":"VEC3","name":"accessorAnimationPositions"},{"bufferView":3,"byteOffset":804,"componentType":5126,"count":101,"max":[3.33333325],"min":[0.0],"type":"SCALAR","name":"accessorAnimationInput"},{"bufferView":4,"byteOffset":2412,"componentType":5126,"count":101,"type":"VEC3","name":"accessorAnimationPositions"},{"bufferView":3,"byteOffset":1208,"componentType":5126,"count":101,"max":[3.33333325],"min":[0.0],"type":"SCALAR","name":"accessorAnimationInput"},{"bufferView":4,"byteOffset":3624,"componentType":5126,"count":101,"type":"VEC3","name":"accessorAnimationPositions"},{"bufferView":3,"byteOffset":1612,"componentType":5126,"count":90,"max":[3.33333325],"min":[0.0],"type":"SCALAR","name":"accessorAnimationInput"},{"bufferView":5,"componentType":5126,"count":90,"type":"VEC4","name":"accessorAnimationRotations"}],"bufferViews":[{"buffer":0,"byteLength":8016,"name":"bufferViewScalar"},{"buffer":0,"byteOffset":8016,"byteLength":96192,"byteStride":12,"name":"bufferViewFloatVec3"},{"buffer":0,"byteOffset":104208,"byteLength":32064,"byteStride":8,"name":"bufferViewFloatVec2"},{"buffer":0,"byteOffset":136272,"byteLength":1972,"name":"bufferViewAnimationFloatScalar"},{"buffer":0,"byteOffset":138244,"byteLength":4836,"name":"bufferViewAnimationFloatVec3"},{"buffer":0,"byteOffset":143080,"byteLength":1440,"name":"bufferViewAnimationFloatVec4"}],"buffers":[{"uri":"SSDF.bin","byteLength":144520}],"animations":[{"channels":[{"sampler":0,"target":{"node":0,"path":"translation"}},{"sampler":1,"target":{"node":5,"path":"translation"}},{"sampler":2,"target":{"node":7,"path":"translation"}},{"sampler":3,"target":{"node":9,"path":"translation"}},{"sampler":4,"target":{"node":9,"path":"rotation"}}],"samplers":[{"input":28,"interpolation":"LINEAR","output":29},{"input":30,"interpolation":"LINEAR","output":31},{"input":32,"interpolation":"LINEAR","output":33},{"input":34,"interpolation":"LINEAR","output":35},{"input":36,"interpolation":"LINEAR","output":37}],"name":"All Animations"}]}